<svg version="1.1" id="Layer_1" xmlns="http://www.w3.org/2000/svg" xmlns:xlink="http://www.w3.org/1999/xlink" x="0px" y="0px"
	 width="100%" viewBox="0 0 608 560" enable-background="new 0 0 608 560" xml:space="preserve">
<path fill="#000000" opacity="1.000000" stroke="none" 
	d="
M360.589844,275.872040 
	C351.969360,277.518158 344.653381,275.596588 338.423553,269.981140 
	C336.592957,268.331085 334.703156,268.105865 332.434296,268.611389 
	C321.318756,271.088043 310.120972,272.281403 298.748505,270.631714 
	C295.166199,270.112091 294.348267,272.251892 294.766266,275.200378 
	C297.028351,291.156128 299.219025,307.123840 301.724915,323.041687 
	C302.287323,326.614136 301.321289,328.059326 297.910431,328.316895 
	C296.755554,328.404114 295.608307,328.678253 294.474182,328.939056 
	C290.136932,329.936401 288.236755,328.447418 287.616791,323.797760 
	C285.178284,305.509064 282.361420,287.270630 279.655823,269.017853 
	C278.856842,263.627472 273.880859,264.535797 270.852264,262.589478 
	C268.644257,264.793365 269.288177,267.084625 269.254944,269.150269 
	C268.998138,285.136810 268.883453,301.125885 268.554108,317.110657 
	C268.513519,319.080414 269.586334,322.187531 267.008514,322.877930 
	C263.372314,323.851807 259.318298,324.099518 255.751923,322.567993 
	C253.947891,321.793243 254.715317,319.245056 254.721664,317.478088 
	C254.793564,297.481232 254.872833,277.484100 255.077835,257.488342 
	C255.116119,253.754120 254.238602,250.960800 249.956345,249.798355 
	C247.775192,254.355591 247.432953,259.368134 246.579895,264.165863 
	C243.928345,279.078827 241.527878,294.038727 239.239349,309.012421 
	C238.627975,313.012665 237.149719,314.753723 233.016663,313.367035 
	C231.610733,312.895386 230.098618,312.657593 228.615616,312.515228 
	C225.301270,312.197083 224.556381,310.426147 225.090500,307.353119 
	C227.880188,291.302917 230.548584,275.231598 233.274887,259.170319 
	C234.359512,252.780502 235.515915,246.402771 236.577484,240.009216 
	C237.083115,236.963852 236.586258,234.228836 234.741180,231.515030 
	C230.616318,225.447983 226.998337,219.059052 224.639709,212.055435 
	C223.884140,209.811829 222.501068,208.658279 220.162445,207.923340 
	C208.232269,204.174240 201.116684,195.605774 200.621994,184.785324 
	C200.082397,172.982666 206.076065,164.155273 218.190689,159.040680 
	C219.753464,158.380890 221.279953,157.928574 221.821121,156.014938 
	C225.311050,143.673828 231.477844,132.683655 238.907623,122.335052 
	C239.076523,122.099792 239.020111,121.702774 239.116043,121.069145 
	C236.696136,118.862762 233.384872,118.113350 230.373093,116.889046 
	C217.566605,111.683174 204.757660,106.474480 191.835724,101.566673 
	C187.698456,99.995323 185.917313,98.139114 188.491882,93.966988 
	C188.663727,93.688515 188.730362,93.346107 188.853516,93.036469 
	C191.522202,86.327934 191.529327,86.310509 198.029617,88.880928 
	C213.831741,95.129555 229.627014,101.395531 245.424606,107.655617 
	C251.948730,110.240921 253.672409,109.700356 258.252655,103.602959 
	C257.673370,101.841621 256.027496,101.226227 254.632202,100.396797 
	C240.310745,91.883492 226.034698,83.290176 211.593307,74.984688 
	C207.928177,72.876801 206.914764,71.219460 209.401367,67.294220 
	C214.309860,59.545872 214.184738,59.653851 222.182373,64.570877 
	C238.499847,74.603012 255.076508,84.212677 271.479584,94.107162 
	C274.834686,96.130989 277.388672,95.122246 280.010132,92.948547 
	C279.802734,90.687256 277.892761,89.974174 276.556427,88.870186 
	C262.556976,77.304977 248.492081,65.818810 234.530685,54.208057 
	C233.032822,52.962399 230.014404,51.926964 231.356720,49.274754 
	C233.064270,45.900913 235.379547,42.638988 238.826111,40.857868 
	C240.325836,40.082836 241.734253,42.121658 242.991455,43.146984 
	C260.674469,57.568413 278.365814,71.980095 295.954803,86.515587 
	C298.057465,88.253204 300.083923,88.960297 302.748749,88.825844 
	C310.241638,88.447823 317.748016,88.297203 325.172943,89.701759 
	C327.688263,90.177582 329.593292,89.500435 331.460052,87.685783 
	C338.601501,80.743843 347.357849,78.204895 356.744995,81.023010 
	C367.426422,84.229683 373.458832,92.099640 374.870850,103.290916 
	C374.995453,104.278717 375.390747,105.416832 375.061584,106.248016 
	C372.583038,112.506470 376.014557,116.462914 379.960388,120.647614 
	C386.064545,127.121368 390.397736,134.841843 394.144073,142.887924 
	C394.893585,144.497665 395.219666,146.436859 397.077209,147.368973 
	C399.125122,147.361282 400.372589,145.892380 401.776459,144.782074 
	C413.796600,135.275375 425.873108,125.836998 437.751984,116.156403 
	C441.130280,113.403313 443.468018,113.335213 445.751221,117.152100 
	C446.516022,118.430672 447.448334,119.647194 448.483887,120.718246 
	C451.232971,123.561569 449.579529,125.203392 447.164825,127.084427 
	C433.366394,137.833466 419.646729,148.683655 405.898926,159.497787 
	C400.367432,163.848923 399.876801,165.684418 402.470490,172.984604 
	C406.348480,172.521042 409.388885,170.095779 412.648712,168.290878 
	C425.328033,161.270477 437.922516,154.096939 450.591064,147.056900 
	C455.832794,144.144058 455.895294,144.366714 459.451263,150.551407 
	C461.617249,154.318558 462.650482,156.796738 457.540527,159.531067 
	C440.217285,168.800720 423.238708,178.712219 406.036804,188.212585 
	C402.437225,190.200562 400.408966,192.642776 400.918610,196.931549 
	C402.897980,197.713089 404.498871,196.545929 406.120331,195.945267 
	C422.517487,189.870956 438.880310,183.703995 455.277435,177.629578 
	C462.891113,174.809021 462.786285,174.927261 465.822235,182.479645 
	C467.413574,186.438385 467.165985,188.729553 462.526031,190.311005 
	C451.493225,194.071350 440.637329,198.351501 429.715607,202.436737 
	C419.419647,206.287888 409.151489,210.214752 398.825012,213.981964 
	C396.137115,214.962540 394.364136,216.523651 393.131073,219.132065 
	C389.988617,225.779663 386.160370,232.039780 381.307953,237.593521 
	C379.439575,239.731934 379.407227,241.819214 379.961670,244.492569 
	C383.133850,259.787170 375.778748,271.750183 360.589844,275.872040 
M239.578003,161.806396 
	C254.352997,172.667923 255.574615,191.073441 241.847427,202.793335 
	C238.036407,206.047089 238.187195,208.591370 239.975327,212.534988 
	C254.331924,244.197723 290.052460,262.467163 324.690735,255.871765 
	C328.175812,255.208176 329.667877,254.038651 330.029694,250.212967 
	C331.238739,237.430267 338.540619,228.818451 349.832825,226.231476 
	C356.610382,224.678757 363.044922,225.916626 369.114410,229.474594 
	C369.858459,228.797455 370.527405,228.312149 371.045563,227.699356 
	C394.426178,200.050278 393.104614,154.900574 368.255920,128.448059 
	C366.125427,126.180077 364.235901,125.807152 361.760681,127.464882 
	C357.692780,130.189285 353.088654,130.860611 348.372894,130.561295 
	C335.637360,129.752960 326.849854,121.801582 324.644562,108.912689 
	C323.979156,105.023514 322.522614,103.208763 318.284088,102.999115 
	C312.776764,102.726723 307.331024,102.892502 301.846466,103.200264 
	C274.021515,104.761681 244.520004,128.325409 236.850235,155.117645 
	C236.059647,157.879379 236.140244,160.025452 239.578003,161.806396 
M348.478821,260.133118 
	C356.982788,264.592438 365.692047,260.889832 366.656952,252.405014 
	C367.240387,247.274277 364.104523,242.480042 358.827637,240.435303 
	C354.423584,238.728775 349.350494,240.466064 346.201691,244.759033 
	C342.970612,249.164185 343.593231,254.631119 348.478821,260.133118 
M356.398499,113.933685 
	C362.805664,109.771545 361.666962,99.922707 356.411957,96.389793 
	C351.497040,93.085495 345.336578,93.492950 341.404938,97.565887 
	C337.667572,101.437569 337.222015,107.431419 340.353394,111.710442 
	C343.851044,116.489876 349.878571,117.525658 356.398499,113.933685 
M215.083481,185.130844 
	C216.561768,191.044937 220.160919,194.459717 225.590286,194.571274 
	C230.513672,194.672440 234.159149,192.242599 236.245255,187.798035 
	C238.155228,183.728699 236.904877,177.999771 233.535904,175.032700 
	C229.956940,171.880646 225.875671,171.433487 221.493347,173.182144 
	C216.425873,175.204208 214.816010,179.222824 215.083481,185.130844 
z"/>
<path fill="#000000" opacity="1.000000" stroke="none" 
	d="
M481.113342,430.827179 
	C481.077118,429.044769 481.081635,427.710388 481.007233,426.380402 
	C480.821106,423.051544 478.717285,422.639252 476.103119,423.361633 
	C474.223358,423.881073 473.108337,425.387360 472.231506,427.051514 
	C466.019196,438.841919 459.803131,450.630341 453.612305,462.432007 
	C453.239258,463.143158 453.072083,463.962280 452.583069,465.391907 
	C458.060791,466.525391 463.339905,465.633179 468.522736,466.012268 
	C471.024811,466.195312 474.486115,464.688782 475.688782,467.849243 
	C476.979645,471.241455 476.649994,475.091766 475.794891,478.673065 
	C475.361572,480.487946 473.473145,480.269714 471.992889,480.271820 
	C462.494171,480.285370 452.993500,480.391022 443.497406,480.230530 
	C436.408325,480.110687 432.214722,473.911987 434.988312,467.398895 
	C437.200867,462.203217 440.073547,457.285004 442.715729,452.276611 
	C449.009796,440.345825 455.269623,428.396088 461.679779,416.527740 
	C466.672211,407.284302 482.649689,404.388977 490.827179,411.060089 
	C494.542847,414.091278 495.795105,418.322662 495.636169,422.671143 
	C495.021118,439.501129 495.532745,456.312561 495.854584,473.131683 
	C495.900116,475.510559 496.811890,478.881287 493.923431,479.785950 
	C490.334534,480.910004 486.301422,480.910339 482.626709,479.654816 
	C480.847626,479.046997 481.041351,476.881012 481.055603,475.235626 
	C481.157990,463.408356 481.330902,451.581635 481.418884,439.754303 
	C481.439880,436.929504 481.224701,434.102936 481.113342,430.827179 
z"/>
<path fill="#000000" opacity="1.000000" stroke="none" 
	d="
M232.973633,460.939728 
	C232.976639,444.963593 232.952591,429.477417 232.990814,413.991364 
	C233.005005,408.245026 233.586990,407.781769 239.873260,407.791077 
	C246.641754,407.801147 247.198318,408.241730 247.206726,414.117523 
	C247.228683,429.437500 247.165176,444.757751 247.252121,460.077240 
	C247.264038,462.177460 246.190475,465.051849 249.601257,465.818665 
	C252.765381,466.529999 254.462173,464.802032 255.849777,462.157593 
	C264.590393,445.499969 273.425140,428.891724 282.223083,412.264160 
	C284.252441,408.428802 294.440796,405.812225 297.952728,408.299713 
	C300.153595,409.858582 298.701630,411.599854 297.899719,413.127045 
	C293.659698,421.201813 289.323669,429.226105 285.058411,437.287720 
	C278.986023,448.764923 272.860779,460.215485 266.927887,471.764618 
	C263.868561,477.719971 259.465912,480.950256 252.569412,480.305969 
	C250.753433,480.136353 248.908020,480.293182 247.076294,480.278473 
	C238.112503,480.206512 233.275742,475.463867 232.974136,466.425201 
	C232.918640,464.761871 232.969528,463.094971 232.973633,460.939728 
z"/>
<path fill="#000000" opacity="1.000000" stroke="none" 
	d="
M188.274811,426.506958 
	C188.251724,442.617035 188.102341,458.283875 188.330185,473.945190 
	C188.397736,478.588043 187.197357,480.545776 182.211060,480.385040 
	C173.823395,480.114685 173.812912,480.376953 173.815445,471.823151 
	C173.819641,457.658203 173.842026,443.493195 173.825531,429.328278 
	C173.818283,423.096710 172.874542,422.336975 166.451874,422.493164 
	C162.798523,422.582031 159.137924,422.320770 155.479950,422.288025 
	C152.779465,422.263855 151.486237,420.973053 151.565262,418.284790 
	C151.570160,418.118256 151.574539,417.951202 151.567001,417.784943 
	C151.114807,407.811401 151.114685,407.804474 161.096878,407.802582 
	C175.259857,407.799866 189.422836,407.800140 203.585800,407.816071 
	C210.394699,407.823700 210.995163,408.350067 210.972916,414.071014 
	C210.943222,421.706299 210.453094,422.215820 203.350006,422.330597 
	C199.688583,422.389740 196.023438,422.453278 192.369965,422.677612 
	C190.303955,422.804443 188.315201,423.329193 188.274811,426.506958 
z"/>
<path fill="#000000" opacity="1.000000" stroke="none" 
	d="
M377.238159,447.998413 
	C377.243195,452.497681 377.449188,456.510376 377.194916,460.493652 
	C376.934418,464.574066 378.409271,466.127808 382.593475,466.024811 
	C391.753906,465.799316 400.930176,466.167572 410.087616,465.888214 
	C414.912811,465.740967 416.909790,467.475067 416.268951,472.249573 
	C416.159149,473.067932 416.160828,473.927155 416.273315,474.745148 
	C416.860809,479.018555 415.343597,480.560028 410.771423,480.416992 
	C399.449585,480.062836 388.109436,480.323090 376.776947,480.272400 
	C368.241913,480.234222 362.985718,475.191254 362.937439,466.665497 
	C362.837433,449.000885 363.093750,431.332855 362.847076,413.671234 
	C362.766235,407.882843 365.921112,407.669739 370.180603,407.794250 
	C376.573395,407.981049 377.156281,408.320221 377.185547,414.001068 
	C377.243011,425.166809 377.224274,436.332916 377.238159,447.998413 
z"/>
<path fill="#000000" opacity="1.000000" stroke="none" 
	d="
M114.582520,420.245056 
	C114.631683,418.308319 114.669128,416.811188 114.675255,415.313965 
	C114.706467,407.691742 114.703621,407.691742 122.535477,407.819855 
	C128.591827,407.918976 129.120850,408.406586 129.129578,414.388641 
	C129.158463,434.187286 129.167206,453.985962 129.160461,473.784637 
	C129.158325,480.071106 128.948486,480.249847 122.745193,480.285217 
	C114.628502,480.331512 114.666924,480.331512 114.661522,472.077301 
	C114.650314,454.946411 114.594078,437.815552 114.582520,420.245056 
z"/>
<path fill="#000000" opacity="1.000000" stroke="none" 
	d="
M321.823029,426.001953 
	C321.827606,421.340210 321.951599,417.174072 321.809479,413.017059 
	C321.676270,409.119385 323.431244,407.494049 327.226929,407.811432 
	C328.053833,407.880585 328.899353,407.894562 329.722931,407.807404 
	C334.462219,407.305878 336.242310,409.371216 336.184753,414.143463 
	C336.006012,428.963409 336.139130,443.787140 336.147339,458.609375 
	C336.150482,464.271912 336.059174,469.936157 336.171753,475.596405 
	C336.239258,478.992798 334.832855,480.248413 331.414703,480.336029 
	C321.774170,480.583313 321.786407,480.703369 321.797577,470.969177 
	C321.814606,456.146637 321.817444,441.324066 321.823029,426.001953 
z"/>
<path fill="#000000" opacity="1.000000" stroke="none" 
	d="
M209.729309,261.831787 
	C213.068604,251.647141 216.435120,241.884491 219.484970,232.023895 
	C220.534439,228.630798 222.116699,227.988342 225.349060,229.011978 
	C234.359680,231.865433 234.359467,231.759628 231.352768,240.939972 
	C225.339691,259.299622 219.273453,277.642853 213.452209,296.063385 
	C212.355652,299.533325 210.836136,300.021149 207.639420,299.017914 
	C198.745514,296.226715 198.663055,296.312653 201.475021,287.402466 
	C204.130920,278.986816 206.908340,270.609528 209.729309,261.831787 
z"/>
<path fill="#000000" opacity="1.000000" stroke="none" 
	d="
M301.241150,85.605438 
	C286.732300,69.570496 272.523010,53.717083 258.206818,37.960854 
	C256.044159,35.580692 256.047119,33.964638 258.450745,31.775816 
	C267.093628,23.905334 264.901062,24.828100 271.536896,32.046452 
	C284.478546,46.124157 297.121857,60.475887 310.040436,74.575134 
	C312.866852,77.659866 312.937378,80.066238 309.407257,82.147598 
	C306.919037,83.614647 305.506073,87.586151 301.241150,85.605438 
z"/>
<path fill="#000000" opacity="1.000000" stroke="none" 
	d="
M416.165344,229.405579 
	C410.880402,230.458176 405.967743,231.264038 401.103882,232.299454 
	C397.837280,232.994873 395.946991,232.107712 395.616455,228.600555 
	C395.523590,227.615448 395.277527,226.630264 394.985352,225.680939 
	C393.647217,221.333481 394.753662,219.246780 399.705383,218.276352 
	C419.568420,214.383682 439.348969,210.063385 459.127197,205.750671 
	C462.809387,204.947754 464.437836,206.299850 464.987885,209.703812 
	C465.146912,210.687866 465.196533,211.714569 465.522247,212.642426 
	C466.944885,216.695343 465.770691,218.638000 461.327026,219.509933 
	C447.640778,222.195480 434.032166,225.277176 420.397308,228.223053 
	C419.103638,228.502579 417.837402,228.909027 416.165344,229.405579 
z"/>
<path fill="#000000" opacity="1.000000" stroke="none" 
	d="
M191.896881,277.821289 
	C190.461578,281.867493 188.256317,282.643036 184.907959,280.492676 
	C183.376999,279.509491 181.669495,278.795959 180.023453,277.998566 
	C177.725952,276.885559 177.438766,275.224609 178.528351,273.067535 
	C187.000320,256.295013 195.485153,239.528900 203.889084,222.722336 
	C205.257965,219.984741 206.871277,219.812424 209.492783,221.020386 
	C218.503021,225.172272 218.567627,225.108795 214.148529,233.872772 
	C206.811142,248.424332 199.432739,262.955231 191.896881,277.821289 
z"/>
<path fill="#000000" opacity="1.000000" stroke="none" 
	d="
M406.107025,235.858246 
	C422.651581,234.990967 438.753632,234.233078 454.840210,233.228256 
	C458.386810,233.006744 460.319427,233.788177 460.266296,237.633072 
	C460.245758,239.119705 460.376526,240.636597 460.668060,242.093765 
	C461.374390,245.624130 459.723358,247.005615 456.424042,247.194717 
	C438.836212,248.202774 421.254211,249.320435 403.661438,250.230698 
	C396.905609,250.580261 396.895050,250.376022 396.425995,244.020660 
	C395.936737,237.391266 396.191559,237.064941 402.679596,236.171829 
	C403.667450,236.035828 404.665558,235.974579 406.107025,235.858246 
z"/>
<path fill="#000000" opacity="1.000000" stroke="none" 
	d="
M290.920868,17.934029 
	C293.814453,16.535444 294.813660,18.460266 295.918732,20.134743 
	C305.355408,34.433964 314.843811,48.699768 324.155670,63.079865 
	C325.511963,65.174339 328.546112,67.530190 326.909241,70.024551 
	C324.952148,73.006882 321.352081,74.682945 317.940979,76.030754 
	C316.421570,76.631119 315.543365,75.223511 314.811951,74.110756 
	C304.490448,58.407486 294.198242,42.684952 283.860382,26.992487 
	C282.308472,24.636747 282.905273,23.014551 285.167328,21.640577 
	C287.015289,20.518105 288.798523,19.289078 290.920868,17.934029 
z"/>
<path fill="#000000" opacity="1.000000" stroke="none" 
	d="
M193.594971,230.565598 
	C186.730698,240.185745 179.960175,249.433731 173.479553,258.880646 
	C171.386856,261.931183 169.504410,261.899414 166.994171,259.820740 
	C166.866638,259.715149 166.721146,259.631348 166.584869,259.536133 
	C157.511444,253.196747 159.439301,254.556351 164.471710,247.303757 
	C172.617218,235.564606 181.095291,224.055862 189.211136,212.296738 
	C191.446091,209.058517 193.425552,208.491058 196.355164,211.088516 
	C197.344864,211.965988 198.433640,212.779053 199.592438,213.409622 
	C203.102264,215.319443 203.284012,217.519653 200.789841,220.563354 
	C198.267670,223.641251 196.115524,227.022369 193.594971,230.565598 
z"/>
<path fill="#000000" opacity="1.000000" stroke="none" 
	d="
M410.069183,255.454514 
	C423.019318,256.645966 435.561615,257.756012 448.103394,258.872131 
	C450.471008,259.082794 451.757202,260.171021 451.429443,262.765533 
	C451.221893,264.408508 451.177124,266.079559 451.167969,267.738586 
	C451.145782,271.758270 449.601257,273.067413 445.277405,272.589874 
	C429.790039,270.879517 414.253235,269.606232 398.725342,268.282104 
	C395.435303,268.001556 393.724884,266.888855 394.494659,263.298584 
	C394.769897,262.014801 394.743073,260.652954 394.745514,259.326508 
	C394.752380,255.596527 396.181396,253.795822 400.256073,254.531036 
	C403.341431,255.087753 406.522614,255.113312 410.069183,255.454514 
z"/>
<path fill="#000000" opacity="1.000000" stroke="none" 
	d="
M343.252930,64.215401 
	C332.072296,69.244713 332.074158,69.243866 327.217896,58.612694 
	C321.689056,46.509144 316.252319,34.362007 310.566254,22.332760 
	C308.894287,18.795700 309.366241,16.796022 313.215576,15.651814 
	C314.953674,15.135153 316.573547,14.208693 318.229340,13.430375 
	C320.097626,12.552166 321.422058,13.042394 322.281036,14.909870 
	C329.440948,30.476280 336.607941,46.039459 343.761780,61.608665 
	C344.129120,62.408169 344.066895,63.223114 343.252930,64.215401 
z"/>
<path fill="#000000" opacity="1.000000" stroke="none" 
	d="
M173.776886,201.764465 
	C174.249954,201.263031 174.473206,201.016373 174.707916,200.781158 
	C180.571243,194.904266 184.655823,195.535278 189.164993,202.869553 
	C190.158340,204.485245 189.852768,205.673187 188.694763,206.857513 
	C178.589645,217.192459 168.478592,227.521591 158.353958,237.837433 
	C156.995239,239.221817 155.659393,239.259109 153.960754,238.062714 
	C145.925568,232.403412 145.735168,230.816208 152.430252,223.920456 
	C159.491165,216.647903 166.500519,209.325302 173.776886,201.764465 
z"/>
<path fill="#000000" opacity="1.000000" stroke="none" 
	d="
M349.609039,16.539463 
	C353.179077,29.026407 356.639130,41.130817 360.048492,53.249493 
	C362.062378,60.407982 362.026489,60.418846 355.046814,62.478001 
	C354.091614,62.759804 353.110077,62.969036 352.180664,63.318188 
	C349.818359,64.205635 348.394714,63.485752 347.713806,61.024532 
	C343.911469,47.280540 340.092438,33.541073 336.225433,19.815193 
	C335.628326,17.695759 335.951080,16.265453 338.253479,15.601958 
	C340.484131,14.959134 342.719666,14.306213 344.891724,13.493747 
	C347.604919,12.478851 349.008270,13.453565 349.609039,16.539463 
z"/>
<path fill="#000000" opacity="1.000000" stroke="none" 
	d="
M398.349121,272.612976 
	C410.481842,275.690826 422.198273,278.802246 433.980530,281.640228 
	C438.089722,282.630005 439.870300,283.985962 438.511444,288.751617 
	C435.796387,298.273560 436.170135,296.464600 428.671967,294.569672 
	C416.757812,291.558807 404.887726,288.363007 392.925171,285.560669 
	C389.287689,284.708527 387.986389,283.294220 389.335449,279.750092 
	C389.627991,278.981506 389.694214,278.129303 389.897919,277.324005 
	C391.519531,270.912506 391.538300,270.903412 398.349121,272.612976 
z"/>
<path fill="#000000" opacity="1.000000" stroke="none" 
	d="
M176.611069,193.788696 
	C167.516403,200.520309 158.587570,206.901611 149.904236,213.601120 
	C146.442184,216.272217 144.135910,216.193451 142.007812,212.293289 
	C141.218567,210.846832 140.088913,209.581589 139.078125,208.261566 
	C137.559219,206.277985 137.861847,204.732315 139.898361,203.231979 
	C149.535431,196.132156 159.130112,188.974609 168.714355,181.803497 
	C170.648361,180.356445 172.395752,180.296951 173.894363,182.276550 
	C175.591171,184.517960 177.238480,186.804825 178.769684,189.161331 
	C180.256607,191.449646 178.143158,192.365982 176.611069,193.788696 
z"/>
<path fill="#000000" opacity="1.000000" stroke="none" 
	d="
M381.391144,295.406494 
	C385.466583,286.165161 384.034698,286.710449 393.151886,290.601715 
	C401.996155,294.376526 410.802063,298.242737 419.679840,301.936615 
	C423.204742,303.403229 424.568268,305.094879 422.695892,309.096649 
	C418.978760,317.041046 419.194977,317.139404 411.320038,313.716553 
	C401.895752,309.620361 392.505707,305.441803 383.023895,301.483246 
	C379.828125,300.149078 379.526581,298.379913 381.391144,295.406494 
z"/>
<path fill="#000000" opacity="1.000000" stroke="none" 
	d="
M377.385071,39.736378 
	C378.041534,45.620720 378.884644,51.038494 379.237854,56.488022 
	C379.587982,61.889854 374.785645,60.390156 372.019257,61.009682 
	C369.737579,61.520672 366.265503,62.464359 365.774567,58.331264 
	C364.307770,45.982655 362.974243,33.618145 361.623962,21.255989 
	C361.556946,20.642057 361.823059,19.991739 361.907074,19.512127 
	C362.389313,19.213192 362.647797,18.936440 362.945007,18.885414 
	C377.394073,16.404982 374.347351,16.767876 376.246155,28.893930 
	C376.784393,32.330902 376.995789,35.819042 377.385071,39.736378 
z"/>
<path fill="#000000" opacity="1.000000" stroke="none" 
	d="
M133.176956,181.748520 
	C132.929733,179.229111 134.668030,178.642410 136.096756,177.902008 
	C144.488052,173.553314 152.932587,169.306458 161.295639,164.904556 
	C164.319946,163.312714 166.042313,164.051514 167.641800,167.022690 
	C172.043564,175.199432 172.162476,175.179413 163.960663,179.447540 
	C157.349380,182.888000 150.567230,186.019501 144.092438,189.695862 
	C139.925949,192.061569 137.417709,191.522354 135.757507,186.964890 
	C135.139511,185.268402 134.108490,183.722412 133.176956,181.748520 
z"/>
<path fill="#000000" opacity="1.000000" stroke="none" 
	d="
M404.376526,326.286133 
	C398.445862,335.330566 399.870911,334.243530 391.981079,329.335907 
	C385.214600,325.127014 378.654419,320.587036 371.900635,316.356934 
	C369.035645,314.562531 368.595306,312.916046 370.523438,309.953217 
	C375.684723,302.022247 375.541016,301.960999 383.184998,306.988464 
	C389.843506,311.367798 396.504944,315.744659 403.238678,320.006348 
	C405.834015,321.648926 406.787476,323.390625 404.376526,326.286133 
z"/>
<path fill="#000000" opacity="1.000000" stroke="none" 
	d="
M398.180206,53.840378 
	C397.807404,61.955189 393.083069,64.890289 385.713501,62.141857 
	C383.878143,61.457359 383.693695,60.055008 383.785400,58.538235 
	C384.387817,48.577419 385.062653,38.620991 385.670135,28.660467 
	C385.795685,26.601576 386.820068,25.879982 388.814697,25.637218 
	C398.592438,24.447186 399.562408,25.229605 399.176849,34.937542 
	C398.932648,41.085594 398.525391,47.227173 398.180206,53.840378 
z"/>
<path fill="#000000" opacity="1.000000" stroke="none" 
	d="
M147.921753,164.021210 
	C145.953247,164.616135 144.366745,165.094986 142.777435,165.564316 
	C135.740601,167.642319 135.740326,167.641327 133.580826,160.514313 
	C131.639679,154.107849 131.650497,154.078598 137.859009,152.211929 
	C143.891083,150.398285 150.023697,148.862381 155.930710,146.707184 
	C160.784348,144.936310 163.126984,146.480270 164.022522,151.235992 
	C164.175140,152.046463 164.404968,152.858505 164.720840,153.619308 
	C166.087631,156.911362 165.269638,158.888046 161.613510,159.834259 
	C157.126251,160.995605 152.735138,162.528473 147.921753,164.021210 
z"/>
<path fill="#000000" opacity="1.000000" stroke="none" 
	d="
M379.137817,345.382050 
	C377.248871,346.675323 376.036377,345.877991 374.878021,344.796082 
	C368.226349,338.583527 361.573303,332.372467 354.771423,326.021484 
	C356.732727,322.347931 359.619476,319.885681 362.303986,317.280029 
	C363.912048,315.719238 365.335114,316.715302 366.626831,317.926422 
	C372.435944,323.373077 378.184265,328.886627 384.079407,334.238434 
	C386.372650,336.320343 386.219482,337.981659 384.114166,340.000977 
	C382.443420,341.603516 380.982666,343.425018 379.137817,345.382050 
z"/>
<path fill="#000000" opacity="1.000000" stroke="none" 
	d="
M404.300781,52.428032 
	C405.390961,47.828491 406.483887,43.650280 407.299652,39.418648 
	C407.903656,36.285591 409.543884,35.179928 412.571686,35.931564 
	C413.216217,36.091564 413.869171,36.217548 414.517456,36.362724 
	C421.956146,38.028549 421.945923,38.026436 420.299438,45.323605 
	C418.912628,51.469990 417.432648,57.599041 416.226959,63.781216 
	C415.505615,67.479858 413.743988,69.040771 409.996857,67.929291 
	C409.202271,67.693581 408.392487,67.506767 407.585358,67.315849 
	C401.012177,65.761055 401.024261,65.765556 402.718079,59.127003 
	C403.251068,57.038078 403.698181,54.927238 404.300781,52.428032 
z"/>
<path fill="#000000" opacity="1.000000" stroke="none" 
	d="
M155.281693,141.393097 
	C150.216522,141.945496 145.594940,142.416580 140.983276,142.970139 
	C138.366684,143.284241 136.761841,142.268845 136.418808,139.639435 
	C136.118820,137.340027 135.968811,135.019089 135.810287,132.703705 
	C135.653412,130.412430 137.017258,129.356003 139.069443,129.094757 
	C145.000153,128.339722 150.942978,127.679695 156.873566,126.923798 
	C160.432526,126.470169 162.254730,127.919655 162.285187,131.545715 
	C162.289352,132.042206 162.363663,132.540146 162.432266,133.033707 
	C163.509186,140.781631 163.476105,140.823761 155.281693,141.393097 
z"/>
<path fill="#000000" opacity="1.000000" stroke="none" 
	d="
M426.921661,76.255661 
	C417.415344,71.830673 417.451569,73.890182 422.013153,63.244911 
	C423.649445,59.426281 425.482025,55.691143 427.090027,51.861221 
	C428.232056,49.141235 429.803833,48.629395 432.576660,49.729836 
	C441.715881,53.356899 441.790070,53.284950 437.980957,62.219433 
	C436.221832,66.345581 434.252563,70.381668 432.424316,74.479004 
	C431.341644,76.905426 429.743378,77.758392 426.921661,76.255661 
z"/>
<path fill="#000000" opacity="1.000000" stroke="none" 
	d="
M363.890137,348.616211 
	C360.804749,351.353821 357.870331,353.751740 354.318359,356.654327 
	C349.326538,349.849365 344.620758,343.465790 339.959747,337.049683 
	C339.174744,335.969116 339.344666,334.850952 340.369934,333.926514 
	C340.493469,333.815125 340.631531,333.718414 340.746307,333.599030 
	C347.328522,326.753784 350.455383,326.687653 355.460266,334.435150 
	C358.395599,338.979034 362.716034,342.728455 363.890137,348.616211 
z"/>
<path fill="#000000" opacity="1.000000" stroke="none" 
	d="
M164.898956,111.079346 
	C164.808228,111.827194 164.741425,112.152512 164.687592,112.479965 
	C163.069595,122.322090 162.967285,122.390457 152.669708,120.888000 
	C151.030029,120.648766 149.378937,120.255737 147.739975,120.287445 
	C143.063385,120.377937 141.800201,118.398415 142.511261,113.774788 
	C143.785477,105.489166 143.515640,105.474792 151.965378,106.429176 
	C154.766861,106.745590 157.592560,106.842369 160.399078,107.120972 
	C162.616577,107.341103 164.802795,107.709976 164.898956,111.079346 
z"/>
<path fill="#000000" opacity="1.000000" stroke="none" 
	d="
M442.249695,87.984634 
	C432.473816,81.114571 433.967926,82.825920 439.581146,74.426048 
	C440.042786,73.735222 440.530182,73.061577 441.007111,72.381004 
	C446.980560,63.857346 448.383972,63.758667 456.009949,70.938744 
	C457.553864,72.392365 457.655701,73.578758 456.440643,75.207314 
	C453.459686,79.202583 450.538635,83.242920 447.625458,87.288124 
	C446.204376,89.261452 444.576019,89.729668 442.249695,87.984634 
z"/>
<path fill="#000000" opacity="1.000000" stroke="none" 
	d="
M324.870850,339.818329 
	C333.231537,335.999329 333.227875,336.000977 336.949097,344.293182 
	C337.629822,345.810089 338.364166,347.302856 339.055908,348.814911 
	C342.265778,355.831696 342.110413,355.610199 335.167908,359.032013 
	C330.512756,361.326385 328.267181,360.214172 326.716339,355.514465 
	C325.629089,352.219635 324.051331,349.048035 322.371735,345.998108 
	C320.697296,342.957550 321.125916,341.015167 324.870850,339.818329 
z"/>
<path fill="#000000" opacity="1.000000" stroke="none" 
	d="
M157.948425,99.148689 
	C155.615128,97.814102 151.830719,98.328835 152.101639,95.038864 
	C152.392807,91.502808 153.514847,87.892044 155.859009,84.989311 
	C156.680389,83.972237 158.046280,84.508080 159.140411,84.824226 
	C160.726196,85.282448 162.276337,85.863953 163.841843,86.392357 
	C172.406174,89.283073 172.406174,89.283012 169.304489,97.521019 
	C167.416275,102.535988 167.416290,102.535995 157.948425,99.148689 
z"/>
<path fill="#000000" opacity="1.000000" stroke="none" 
	d="
M455.737671,103.199051 
	C448.804871,95.061836 448.758972,95.005951 456.577698,88.583405 
	C458.376007,87.106270 459.944916,83.893303 462.691620,85.329010 
	C465.916077,87.014473 467.862793,90.369164 469.872375,93.423050 
	C469.957062,93.551788 469.980713,93.736397 469.989258,93.897278 
	C470.161743,97.152237 459.096588,104.695724 455.737671,103.199051 
z"/>
<path fill="#000000" opacity="1.000000" stroke="none" 
	d="
M315.390808,359.506378 
	C302.481476,362.097839 304.745728,363.090271 302.010345,350.747131 
	C301.593445,348.865875 300.085358,346.009583 302.767578,344.954865 
	C306.244934,343.587463 309.969696,342.433868 313.881348,343.032532 
	C314.014618,343.052948 314.121094,343.245392 314.240936,343.356750 
	C316.057587,345.044250 317.187042,356.784424 315.390808,359.506378 
z"/>
<path fill="#000000" opacity="1.000000" stroke="none" 
	d="
M159.711227,537.483276 
	C160.950394,535.455872 161.264404,532.477844 164.224823,533.394958 
	C166.623825,534.138123 166.048294,536.665405 166.125381,538.593445 
	C166.211807,540.755859 166.173904,542.926147 166.110916,545.090637 
	C166.067291,546.589355 166.075623,548.333191 164.146698,548.652161 
	C162.037109,549.001038 161.938034,547.113525 161.603714,545.578430 
	C157.539841,550.221069 156.362625,550.172791 153.019058,545.327759 
	C152.131622,546.507996 152.800568,549.132202 150.281494,548.687012 
	C148.142838,548.309082 148.134888,546.356812 148.098877,544.709351 
	C148.037079,541.882446 148.066940,539.048828 148.198593,536.224548 
	C148.263046,534.841980 148.835861,533.534668 150.400879,533.253662 
	C151.935898,532.978027 152.818802,533.996399 153.588318,535.182373 
	C154.754288,536.979126 154.930801,539.329834 156.708633,540.806702 
	C158.780945,540.833801 158.737747,538.900024 159.711227,537.483276 
z"/>
<path fill="#000000" opacity="1.000000" stroke="none" 
	d="
M91.075363,536.621826 
	C90.715073,538.462891 89.669289,539.720520 91.143753,541.476318 
	C92.939415,543.614624 91.975876,546.007996 90.087875,547.649902 
	C87.434006,549.957886 84.149925,549.593140 81.106056,548.702942 
	C78.803406,548.029541 77.758453,546.168274 78.259338,543.612549 
	C78.445488,542.662720 78.509209,541.611816 78.306862,540.676758 
	C77.596581,537.394226 77.963066,534.508423 81.605408,533.454773 
	C85.207268,532.412964 88.908592,531.958923 91.075363,536.621826 
z"/>
<path fill="#000000" opacity="1.000000" stroke="none" 
	d="
M297.486816,535.232971 
	C298.429413,537.709045 296.302521,539.980652 298.561737,542.378296 
	C299.767670,543.658081 298.692749,546.644043 296.775299,548.031067 
	C293.957825,550.069092 290.742859,549.606201 287.780029,548.500244 
	C285.661499,547.709473 285.095062,545.786072 285.819000,543.534424 
	C286.055542,542.798645 286.122803,541.880249 285.909058,541.150452 
	C285.073090,538.296509 284.442688,535.338318 287.741608,533.811096 
	C290.974243,532.314575 294.441711,531.767700 297.486816,535.232971 
z"/>
<path fill="#000000" opacity="1.000000" stroke="none" 
	d="
M477.767120,113.234077 
	C480.790253,117.633408 478.868530,119.665253 474.933594,121.261238 
	C468.118530,124.025406 463.947510,121.430336 463.012848,113.665169 
	C462.849335,112.306808 463.266205,111.399734 464.369904,110.766235 
	C465.373932,110.189972 466.419098,109.682533 467.461365,109.176071 
	C474.479675,105.765617 474.480988,105.768333 477.767120,113.234077 
z"/>
<path fill="#000000" opacity="1.000000" stroke="none" 
	d="
M178.780640,68.174652 
	C182.656631,70.278229 183.357361,72.605644 180.339798,75.720428 
	C179.316193,76.777039 178.563232,78.119728 177.799393,79.399033 
	C176.308746,81.895638 174.514862,82.541290 172.152649,80.529564 
	C172.026932,80.422508 171.884628,80.333931 171.745468,80.243790 
	C164.080399,75.277786 163.799011,71.733437 170.855164,65.748177 
	C174.271225,62.850559 176.053833,66.835045 178.780640,68.174652 
z"/>
<path fill="#000000" opacity="1.000000" stroke="none" 
	d="
M292.915344,346.465393 
	C293.169678,347.859528 293.288544,348.847717 293.268494,349.833038 
	C293.084839,358.851685 290.289520,360.759033 281.537598,357.880066 
	C280.411865,357.509766 279.238617,357.107117 279.003448,355.803711 
	C278.372681,352.308167 278.629822,348.691132 280.172058,345.637207 
	C281.406982,343.191803 284.382477,344.793701 286.559814,344.764465 
	C288.650391,344.736420 290.901337,344.525269 292.915344,346.465393 
z"/>
<path fill="#000000" opacity="1.000000" stroke="none" 
	d="
M505.769531,533.988525 
	C508.038910,535.966064 508.797852,538.361816 507.885895,540.562622 
	C506.815857,543.145020 506.748352,545.537964 507.695984,548.065674 
	C503.182190,550.773926 503.229095,544.936890 500.496460,544.705933 
	C499.231140,545.023560 499.342468,546.170410 499.054382,547.077332 
	C498.721893,548.124207 498.078888,548.844482 496.905487,548.713623 
	C495.750458,548.584778 495.086700,547.709534 495.061188,546.679688 
	C494.970795,543.031982 494.843475,539.368713 495.083893,535.734802 
	C495.257141,533.115723 497.495636,532.905396 499.576294,532.880798 
	C501.568542,532.857300 503.580505,532.765625 505.769531,533.988525 
z"/>
<path fill="#000000" opacity="1.000000" stroke="none" 
	d="
M135.674652,545.215454 
	C135.012451,546.791504 135.217056,548.811768 133.053589,548.573059 
	C131.130829,548.360840 131.065201,546.608765 130.980942,545.113708 
	C130.887833,543.461243 130.762299,541.789734 130.908661,540.149536 
	C131.130249,537.666321 129.896820,534.326965 133.309280,533.299377 
	C136.304703,532.397400 139.689209,532.226746 142.311829,534.481567 
	C144.754074,536.581238 144.946640,539.616943 143.475159,542.202698 
	C142.243698,544.366638 143.851593,546.000488 143.838211,547.739868 
	C141.735382,549.862244 140.491409,548.538635 139.215744,547.087708 
	C138.317322,546.065918 137.943069,544.154724 135.674652,545.215454 
z"/>
<path fill="#000000" opacity="1.000000" stroke="none" 
	d="
M35.007275,545.836792 
	C35.508919,549.518066 33.998161,549.672058 31.681379,548.093750 
	C30.378342,547.206055 30.223154,545.026794 28.233921,544.846252 
	C26.799465,545.320984 27.183186,546.854248 26.471437,547.708984 
	C24.853870,549.651672 23.467937,549.122620 22.965200,546.967407 
	C22.050961,543.048218 21.920620,538.860168 23.121998,535.148315 
	C24.446831,531.054932 28.529833,532.800415 31.359688,533.179016 
	C35.237152,533.697693 36.029881,536.844788 35.842674,540.335144 
	C35.747139,542.116333 33.793739,543.538391 35.007275,545.836792 
z"/>
<path fill="#000000" opacity="1.000000" stroke="none" 
	d="
M177.820679,539.167847 
	C178.161621,533.074951 179.958374,531.563293 183.050171,534.327087 
	C184.875519,535.958862 185.418137,538.707764 187.736038,539.896057 
	C188.852982,539.440247 188.522049,538.497253 188.669083,537.734009 
	C188.978455,536.128296 187.933289,533.496826 190.754486,533.588623 
	C192.855698,533.657043 192.728653,535.974731 192.828903,537.556274 
	C192.985703,540.030334 192.971176,542.521912 192.893707,545.001770 
	C192.841019,546.688599 192.562195,548.436157 190.511566,548.884338 
	C188.817047,549.254639 187.704147,548.212952 186.772568,546.959900 
	C185.497635,545.244934 184.228683,543.525574 182.973129,541.829651 
	C182.645004,542.132629 182.326279,542.285217 182.255554,542.514343 
	C181.603577,544.626648 183.384644,548.597351 179.786758,548.376282 
	C176.539673,548.176758 178.264969,544.332153 177.808624,542.102661 
	C177.646271,541.309448 177.804138,540.450806 177.820679,539.167847 
z"/>
<path fill="#000000" opacity="1.000000" stroke="none" 
	d="
M413.213013,540.350586 
	C413.086212,543.874390 414.239380,545.455139 417.727142,544.327576 
	C417.419189,542.843933 414.300079,542.495789 416.210144,540.371765 
	C417.913116,538.477966 420.079895,538.558105 422.194519,539.312988 
	C423.964417,539.944824 424.649261,541.322937 424.252502,543.300659 
	C423.153137,548.781006 415.564819,551.379272 411.154877,547.733398 
	C408.212158,545.300476 407.522736,539.961243 409.838257,536.237427 
	C412.163940,532.497253 415.759064,532.318298 419.546478,533.263611 
	C420.836090,533.585388 422.197693,534.320190 421.821564,536.019287 
	C421.512665,537.414490 420.260925,537.570618 419.018707,537.465332 
	C416.645630,537.264160 414.243713,536.994629 413.213013,540.350586 
z"/>
<path fill="#000000" opacity="1.000000" stroke="none" 
	d="
M69.871323,537.513672 
	C70.037170,535.690735 69.964241,534.105896 71.725151,533.425537 
	C74.166153,535.429321 75.356422,545.656311 73.332535,547.908569 
	C71.711464,549.712585 69.993866,549.164490 68.663559,547.549805 
	C67.088928,545.638611 65.728432,543.550903 64.078323,541.267395 
	C62.886784,542.950500 63.495838,544.631409 63.298908,546.154053 
	C63.146439,547.332947 63.103085,548.645996 61.546028,548.716492 
	C59.741703,548.798157 59.395927,547.409180 59.354126,546.009216 
	C59.260124,542.861328 59.214306,539.710754 59.224899,536.561523 
	C59.229477,535.200256 59.500881,533.847717 61.004791,533.295166 
	C62.676857,532.680969 63.927254,533.458252 64.889626,534.746277 
	C66.169533,536.459229 67.375748,538.227295 68.560921,539.897400 
	C69.929092,539.576782 69.723053,538.630005 69.871323,537.513672 
z"/>
<path fill="#000000" opacity="1.000000" stroke="none" 
	d="
M210.745819,545.723389 
	C207.733765,550.252136 203.640839,550.080139 199.950195,548.222839 
	C195.676636,546.072083 195.658936,541.830872 196.870438,537.738708 
	C198.072311,533.679016 201.306870,532.631958 205.115707,532.872864 
	C206.916031,532.986755 209.337265,533.065857 209.360077,535.367676 
	C209.388092,538.194641 206.850159,537.280212 205.152710,537.257385 
	C202.482361,537.221497 200.424545,537.872009 200.724899,541.117859 
	C201.014420,544.246765 202.623032,545.489502 205.972275,544.332703 
	C205.240555,542.798523 202.323486,541.984192 204.220337,539.927551 
	C205.745239,538.274231 208.029968,538.492981 209.824493,539.351746 
	C212.667664,540.712341 211.869293,543.118042 210.745819,545.723389 
z"/>
<path fill="#000000" opacity="1.000000" stroke="none" 
	d="
M126.857040,544.325928 
	C123.966606,549.003113 118.672119,550.611938 114.807220,548.346863 
	C111.457123,546.383484 110.214081,540.795410 112.222946,536.729431 
	C113.943069,533.247925 118.476105,531.733398 122.627975,533.440613 
	C127.505859,535.446350 127.594780,539.572327 126.857040,544.325928 
M122.839607,541.408813 
	C122.965706,538.864502 122.094383,537.220337 119.220215,537.270813 
	C117.305359,537.304443 115.989510,538.191711 115.632782,540.040222 
	C115.266930,541.936035 115.587769,543.894897 117.701286,544.523926 
	C119.868431,545.168945 122.074280,545.115356 122.839607,541.408813 
z"/>
<path fill="#000000" opacity="1.000000" stroke="none" 
	d="
M231.994141,546.513184 
	C231.847672,544.239136 231.584778,542.388611 231.793442,540.592834 
	C232.094635,538.000671 230.270828,534.329712 233.973099,533.209106 
	C237.509216,532.138794 241.451126,532.467407 244.192886,535.404053 
	C246.595840,537.977905 247.177536,541.278381 245.731186,544.686096 
	C243.585556,549.741333 236.513535,550.911560 231.994141,546.513184 
M238.509872,544.692078 
	C242.226273,544.821655 242.446335,542.351318 241.990524,539.705322 
	C241.652725,537.744446 240.006317,537.016052 238.216934,537.431458 
	C235.020981,538.173218 236.446381,540.782837 236.375076,542.728577 
	C236.342361,543.621643 236.950836,544.228027 238.509872,544.692078 
z"/>
<path fill="#000000" opacity="1.000000" stroke="none" 
	d="
M354.032227,541.805420 
	C354.872345,535.073608 357.740326,532.410034 363.191589,532.882507 
	C367.989960,533.298340 370.663452,536.598389 370.276764,541.843872 
	C369.975891,545.925537 368.112122,548.699463 363.676636,549.168823 
	C358.386230,549.728577 355.869812,547.945801 354.032227,541.805420 
M359.050629,538.572998 
	C358.161560,540.630676 357.614349,542.814819 359.808929,544.261169 
	C361.335754,545.267578 363.369263,545.303772 364.919952,544.177856 
	C366.366272,543.127686 366.642029,541.294617 366.021759,539.719482 
	C364.708496,536.384277 362.172424,536.839172 359.050629,538.572998 
z"/>
<path fill="#000000" opacity="1.000000" stroke="none" 
	d="
M319.029724,541.904846 
	C319.649811,538.710754 317.594452,534.593506 321.102234,533.473145 
	C324.666138,532.334839 325.368164,536.830811 327.359741,538.820496 
	C327.792847,539.253174 328.296875,539.614807 328.818542,540.051331 
	C330.635162,538.154175 328.740173,535.157837 331.356506,533.484253 
	C334.377014,534.892822 333.348846,537.728821 333.271637,539.862732 
	C333.164154,542.833191 335.017792,547.155823 331.789764,548.474915 
	C328.006500,550.020935 327.419983,544.912842 325.198914,542.980469 
	C324.736053,542.577759 324.359192,542.076233 323.882812,541.554749 
	C323.599457,542.015625 323.380829,542.248657 323.299835,542.522400 
	C322.694122,544.570557 324.410309,548.331299 321.400940,548.378296 
	C317.951813,548.432007 319.599854,544.533569 319.029724,541.904846 
z"/>
<path fill="#000000" opacity="1.000000" stroke="none" 
	d="
M522.913757,533.291748 
	C525.157715,535.591431 524.281799,536.747314 521.868164,537.165344 
	C520.432922,537.413818 518.950195,537.388245 516.973022,537.520325 
	C518.673096,539.685181 522.765625,538.248474 522.363892,542.006104 
	C521.415283,544.108826 518.955688,542.643311 517.583069,543.960083 
	C518.331787,545.353271 519.640625,544.634521 520.663086,544.783630 
	C522.303894,545.022766 524.354919,544.850525 524.230774,547.227051 
	C524.124512,549.260742 522.202209,549.279724 520.767883,549.125305 
	C517.961609,548.823120 514.051270,550.733154 512.666687,547.239075 
	C511.081573,543.238953 510.773041,538.334473 512.877625,534.615540 
	C514.833740,531.159058 519.207275,533.178040 522.913757,533.291748 
z"/>
<path fill="#000000" opacity="1.000000" stroke="none" 
	d="
M382.353455,542.504883 
	C382.397858,541.292114 382.495209,540.470947 382.541626,539.646851 
	C382.721863,536.445190 381.868073,532.775085 387.199402,532.833130 
	C393.102753,532.897522 396.518036,535.244385 397.082581,540.298950 
	C397.562042,544.591736 394.899048,548.310486 390.816345,549.049377 
	C384.210175,550.244995 382.694916,549.139221 382.353455,542.504883 
M386.539856,541.484741 
	C386.251129,544.119141 387.493286,545.051208 390.012543,544.699524 
	C392.077393,544.411194 392.645203,543.057983 392.718903,541.240112 
	C392.816315,538.837280 391.683838,537.576294 389.294189,537.382751 
	C386.708557,537.173340 386.248993,538.696167 386.539856,541.484741 
z"/>
<path fill="#000000" opacity="1.000000" stroke="none" 
	d="
M255.683487,538.048889 
	C256.262848,538.515076 256.866150,538.804932 257.498077,538.895752 
	C259.161316,539.134827 260.553192,539.836060 260.373535,541.672424 
	C260.197968,543.467224 258.485657,543.164612 257.206543,543.337219 
	C256.622986,543.416016 256.051208,543.582214 255.306396,543.745483 
	C255.735291,544.210754 255.895386,544.537048 256.142181,544.627991 
	C258.128693,545.359985 261.623138,543.690674 261.855560,547.014587 
	C262.053864,549.850220 258.981964,549.205750 257.203552,549.091614 
	C254.576767,548.923035 250.659805,550.676941 250.561890,545.579834 
	C250.523758,543.594482 250.370956,541.598755 250.511063,539.624817 
	C250.981674,532.993713 252.651749,531.767151 259.273956,532.939819 
	C260.638550,533.181458 262.074188,533.410706 262.012207,535.186523 
	C261.949982,536.970947 260.469604,537.068359 259.115051,537.237061 
	C257.978546,537.378479 256.851624,537.597229 255.683487,538.048889 
z"/>
<path fill="#000000" opacity="1.000000" stroke="none" 
	d="
M540.475586,538.562927 
	C541.483521,541.250427 542.396179,543.567749 543.211609,545.918823 
	C543.542175,546.871887 543.658142,547.956421 542.639160,548.611206 
	C541.668152,549.235168 540.664429,548.955444 539.957214,548.127136 
	C537.676086,545.455566 535.340271,546.125305 532.957886,547.915527 
	C531.998169,548.636658 530.951599,549.397278 529.809387,548.566956 
	C528.380310,547.528137 529.216125,546.141113 529.640442,544.934326 
	C530.631165,542.116211 531.732849,539.337097 532.734253,536.522522 
	C533.294922,534.946777 533.645752,533.184204 535.753540,533.050476 
	C537.745239,532.924133 538.698792,534.292358 539.394348,535.901428 
	C539.723877,536.663757 540.026489,537.437683 540.475586,538.562927 
z"/>
<path fill="#000000" opacity="1.000000" stroke="none" 
	d="
M54.757435,546.251404 
	C54.972164,549.339722 53.284027,549.524292 51.752426,548.252441 
	C49.004925,545.970764 46.621162,545.418518 44.017563,548.287537 
	C43.280647,549.099609 42.197491,549.252747 41.312172,548.580994 
	C40.400509,547.889221 40.499107,546.769165 40.856354,545.828491 
	C42.266277,542.116211 43.436527,538.262268 45.309219,534.791992 
	C46.863873,531.911072 49.213478,532.443848 50.501812,535.248291 
	C52.087292,538.699402 53.276443,542.332520 54.757435,546.251404 
z"/>
<path fill="#000000" opacity="1.000000" stroke="none" 
	d="
M463.941772,548.783691 
	C461.041870,546.536316 458.465240,544.785156 455.423096,548.007751 
	C454.697449,548.776367 453.694122,549.149475 452.714966,548.529724 
	C451.707672,547.892151 451.740662,546.792969 452.109955,545.838989 
	C453.548645,542.122803 454.942200,538.380066 456.606628,534.764099 
	C457.416046,533.005737 459.498199,532.219299 460.654297,533.904907 
	C463.469025,538.009094 465.349121,542.641724 466.117035,547.609863 
	C466.254822,548.501221 465.172089,548.834839 463.941772,548.783691 
z"/>
<path fill="#000000" opacity="1.000000" stroke="none" 
	d="
M271.143982,536.274414 
	C273.987915,532.246704 275.511780,532.097778 277.050262,535.820496 
	C278.739594,539.908142 281.221313,543.871399 281.196289,548.370361 
	C279.247986,549.221924 278.442169,548.472900 277.566101,547.616821 
	C275.591034,545.686707 273.438568,545.818054 271.338837,547.406311 
	C270.289215,548.200256 269.286621,549.507141 267.910461,548.520813 
	C266.218933,547.308533 267.587036,545.808716 268.034912,544.507874 
	C268.948517,541.854248 269.994202,539.246033 271.143982,536.274414 
z"/>
<path fill="#000000" opacity="1.000000" stroke="none" 
	d="
M95.834564,545.496094 
	C95.804504,543.398865 95.747543,541.739746 95.783531,540.082581 
	C95.937820,532.978088 97.359268,531.839050 104.549652,532.921509 
	C106.104401,533.155579 107.777451,533.454529 107.637230,535.389099 
	C107.518097,537.032715 105.900940,537.111389 104.548569,537.233521 
	C103.472893,537.330688 102.403412,537.496399 100.744240,537.705627 
	C104.233040,539.276428 104.233040,539.276428 105.955330,542.026001 
	C103.217087,543.353027 100.326820,544.026855 99.007675,547.756042 
	C98.181030,550.092957 96.182114,548.057800 95.834564,545.496094 
z"/>
<path fill="#000000" opacity="1.000000" stroke="none" 
	d="
M442.955353,532.858032 
	C445.319427,532.997253 447.748688,532.310059 448.656769,534.649780 
	C449.550690,536.952942 446.732117,536.860474 445.860138,538.055054 
	C444.258789,540.248901 445.462646,542.921448 444.912415,545.326660 
	C444.583893,546.762634 444.660645,548.658081 442.644287,548.627563 
	C440.576172,548.596436 440.889374,546.688477 440.575439,545.256287 
	C439.869690,542.036682 441.540222,537.952454 436.772980,536.134277 
	C435.521606,535.656982 436.582825,533.629395 438.071167,533.258179 
	C439.497681,532.902283 441.031555,532.976807 442.955353,532.858032 
z"/>
<path fill="#000000" opacity="1.000000" stroke="none" 
	d="
M475.242310,538.707764 
	C475.472076,540.715698 475.679413,542.344910 475.872284,543.860229 
	C476.254822,544.155762 476.483307,544.408691 476.767914,544.539917 
	C478.763367,545.459717 482.462891,543.491211 482.585358,547.360718 
	C482.650513,549.420105 480.124573,549.336121 478.580688,549.130493 
	C475.708740,548.747864 471.406128,551.171448 470.787689,545.780518 
	C470.507446,543.337341 470.638336,540.833984 470.739838,538.364380 
	C470.812042,536.608154 470.605011,534.140320 473.026703,534.110413 
	C475.632629,534.078125 474.910522,536.669556 475.242310,538.707764 
z"/>
<path fill="#000000" opacity="1.000000" stroke="none" 
	d="
M593.100220,540.854126 
	C592.075378,538.459595 591.191040,536.399658 590.292847,534.307556 
	C593.343567,533.103699 594.442017,535.806152 596.327209,536.411377 
	C596.689331,536.320862 597.028625,536.296692 597.309387,536.155945 
	C599.041138,535.287476 600.122864,531.696045 602.439392,533.815857 
	C604.531067,535.729980 601.649597,537.553040 600.731445,539.321045 
	C599.506836,541.679077 598.215210,543.971497 598.369629,546.785522 
	C598.440491,548.077332 597.843811,549.088684 596.315308,548.953613 
	C595.112305,548.847290 594.559387,547.973450 594.649780,546.886047 
	C594.822937,544.803345 594.145142,542.979431 593.100220,540.854126 
z"/>
<path fill="#000000" opacity="1.000000" stroke="none" 
	d="
M552.100952,539.045654 
	C551.916504,542.980774 552.885071,545.319519 557.082397,544.906250 
	C558.486572,544.768005 559.820618,545.480530 559.750061,547.168945 
	C559.677246,548.910706 558.197388,549.267334 556.849609,549.146973 
	C553.989075,548.891479 549.982910,550.693848 548.555969,547.655823 
	C546.667480,543.635132 547.236267,538.825012 548.290344,534.483643 
	C548.737793,532.640625 550.728455,532.865723 551.523438,534.716858 
	C552.023560,535.881531 551.920959,537.305115 552.100952,539.045654 
z"/>
<path fill="#000000" opacity="1.000000" stroke="none" 
	d="
M14.678883,542.331909 
	C13.581494,544.650696 15.823600,548.850586 12.213346,548.597168 
	C9.091132,548.377930 10.762153,544.417480 10.445160,542.218567 
	C10.111530,539.904297 10.897165,537.509277 7.508941,537.032959 
	C6.650483,536.912354 6.093808,536.111511 6.106776,535.210327 
	C6.122831,534.094482 6.827471,533.185669 7.874335,533.129639 
	C10.837048,532.971008 13.813385,532.955322 16.779943,533.039246 
	C17.846134,533.069397 18.551149,533.950684 18.751129,535.002869 
	C18.967413,536.140930 18.393440,537.092407 17.302902,537.237122 
	C14.181749,537.651062 14.188477,539.635742 14.678883,542.331909 
z"/>
<path fill="#000000" opacity="1.000000" stroke="none" 
	d="
M573.314941,533.623047 
	C576.555054,532.473389 579.541504,532.836304 582.510071,533.023743 
	C583.547974,533.089294 584.434692,533.643188 584.759583,534.702698 
	C585.102905,535.822510 584.618713,536.846130 583.554504,537.067139 
	C580.212891,537.761230 580.623901,540.072937 580.964539,542.464111 
	C581.056580,543.110352 581.015320,543.805725 580.884033,544.447632 
	C580.546509,546.098328 581.196106,548.692810 578.536560,548.593323 
	C576.225281,548.506897 576.806519,546.162476 576.709412,544.614990 
	C576.501099,541.295715 577.564453,537.510864 572.901367,536.095825 
	C572.229431,535.891907 572.504028,534.612671 573.314941,533.623047 
z"/>
<path fill="#000000" opacity="1.000000" stroke="none" 
	d="
M346.230042,542.974609 
	C346.184479,544.396179 346.189148,545.395203 346.093567,546.384583 
	C345.990631,547.450500 345.503662,548.370178 344.348877,548.473938 
	C342.811432,548.611938 342.371155,547.428894 342.263824,546.226929 
	C342.116577,544.577942 342.053375,542.908264 342.130737,541.255737 
	C342.220886,539.330017 342.335938,537.549866 339.802612,537.082336 
	C338.760742,536.890137 337.962280,536.204956 338.039276,535.017578 
	C338.134949,533.542603 339.289215,533.093994 340.485291,533.040466 
	C342.803772,532.936462 345.131531,532.942017 347.451782,533.016663 
	C348.647888,533.055176 349.798370,533.444275 350.011932,534.881714 
	C350.183624,536.036987 349.542938,536.802246 348.500549,537.135315 
	C345.593781,538.064148 346.399536,540.498901 346.230042,542.974609 
z"/>
<path fill="#000000" opacity="1.000000" stroke="none" 
	d="
M400.799591,541.968689 
	C400.844177,539.847595 400.825714,538.180481 400.948975,536.524048 
	C401.047150,535.204651 401.158081,533.639526 402.924713,533.567383 
	C404.681061,533.495728 405.044983,534.969849 405.102600,536.335754 
	C405.221466,539.155823 405.278412,541.983093 405.219177,544.804321 
	C405.185486,546.406677 405.392426,548.586487 403.090729,548.644836 
	C400.738892,548.704468 401.003296,546.531250 400.864716,544.921021 
	C400.793549,544.093994 400.817017,543.258789 400.799591,541.968689 
z"/>
<path fill="#000000" opacity="1.000000" stroke="none" 
	d="
M429.259155,548.488525 
	C426.954193,544.151794 427.997253,539.823181 428.144104,535.561584 
	C428.178741,534.556213 428.728699,533.544312 429.944031,533.563904 
	C430.510315,533.572998 431.225037,533.965393 431.602356,534.412170 
	C433.076752,536.158081 432.277069,546.930420 430.584595,548.593079 
	C430.406342,548.768127 429.950714,548.660889 429.259155,548.488525 
z"/>
<path fill="#000000" opacity="1.000000" stroke="none" 
	d="
M566.737061,548.584778 
	C563.887390,546.706177 562.688782,535.712830 564.873718,533.999084 
	C566.659424,532.598511 567.861755,533.884216 567.932251,535.498596 
	C568.121155,539.825012 569.413940,544.269043 566.737061,548.584778 
z"/>
<path fill="#000000" opacity="1.000000" stroke="none" 
	d="
M225.112946,548.408630 
	C222.778564,544.097656 223.917480,539.747864 223.941086,535.500061 
	C223.950836,533.747681 225.186234,532.585510 226.982239,533.865356 
	C229.258270,535.487244 228.015915,546.777710 225.112946,548.408630 
z"/>
<path fill="#000000" opacity="1.000000" stroke="none" 
	d="
M171.155701,533.610474 
	C172.969360,533.345703 173.791656,534.250000 173.841766,535.484680 
	C173.989685,539.128601 173.997131,542.781677 173.932602,546.428955 
	C173.910507,547.676758 173.235794,548.722107 171.757019,548.584045 
	C170.596954,548.475708 169.984451,547.543640 169.996582,546.505005 
	C170.046219,542.257080 168.823883,537.919556 171.155701,533.610474 
z"/>
<path fill="#000000" opacity="1.000000" stroke="none" 
	d="
M315.263672,540.127747 
	C315.183838,542.729736 315.151917,544.883667 314.982452,547.026733 
	C314.913269,547.901306 314.306671,548.520813 313.357941,548.620361 
	C312.607208,548.699036 311.886749,548.296082 311.841034,547.648987 
	C311.504456,542.888672 310.400574,538.049622 312.442810,533.150391 
	C316.402679,534.566162 314.805908,537.503113 315.263672,540.127747 
z"/>
<path fill="#000000" opacity="1.000000" stroke="none" 
	d="
M313.011444,177.000000 
	C313.025787,188.488663 312.868378,199.481216 313.122314,210.464264 
	C313.247131,215.861786 310.235077,216.312256 306.101044,216.196686 
	C302.227722,216.088379 298.826019,216.269897 298.878540,210.643585 
	C299.065155,190.665527 299.080811,170.683228 298.867615,150.705688 
	C298.804657,144.806976 302.316223,145.071365 306.379242,144.923172 
	C310.850494,144.760101 313.261078,145.959686 313.101532,151.027725 
	C312.834473,159.511032 313.016296,168.008499 313.011444,177.000000 
z"/>
</svg>